# xmcd CD database file
#
# Track frame offsets:
#	150
#	19100
#	46085
#	59470
#	83822
#	103282
#	114802
#	135560
#	154822
#	184902
#	206527
#	232307
#	248190
#	263595
#	275822
#
# Disc length: 3883 seconds
#
# Revision: 0
# Processed by: cddbd v1.5.1PL0 Copyright (c) Steve Scherf et al.
# Submitted via: CDex 1.51
#
DISCID=d30f290f
DTITLE=りんけんバンド - gon gon
DYEAR=1900
DGENRE=歌謡曲
TTITLE0=海とぅ島
TTITLE1=元気でね
TTITLE2=かなぁ小
TTITLE3=御願不足
TTITLE4=海んかい
TTITLE5=村一番のハッピージョイ
TTITLE6=あやふに
TTITLE7=ガチ口説
TTITLE8=にんだらん
TTITLE9=届けてに
TTITLE10=風吹ちどー
TTITLE11=御願げぇさびら
TTITLE12=めでたい めでたい
TTITLE13=天ぬ鏡
TTITLE14=めでたい めでたい(島ヴァージョン)
EXTD=
EXTT0=
EXTT1=
EXTT2=
EXTT3=
EXTT4=
EXTT5=
EXTT6=
EXTT7=
EXTT8=
EXTT9=
EXTT10=
EXTT11=
EXTT12=
EXTT13=
EXTT14=
PLAYORDER=
